# xmcd CD database file
#
# Track frame offsets:
#	150
#	20535
#	43557
#	61232
#	80315
#	98126
#	128574
#	148949
#	167816
#	188814
#	214403
#	231086
#	249249
#	265765
#	284736
#	306598
#	321550
#
# Disc length: 4511 seconds
#
# Revision: 0
# Processed by: cddbd v1.5PL3 Copyright (c) Steve Scherf et al.
# Submitted via: Feurio! 1.66 - http://www.feurio.com
#
DISCID=fd119d11
DTITLE=Various Artist - Dirty Blues 2003
DYEAR=1900
DGENRE=blues
TTITLE0=Vickie Baker And Bobby Rush - Don't Leave Your Wife
TTITLE1=Vickie Baker - Love Strike
TTITLE2=Tyrone Davis - Dogg
TTITLE3=Bobby Rush - What's Good For The Goose
TTITLE4=Latimore - Plain Jane
TTITLE5=Theodis Ealey - Stand Up In It
TTITLE6=Peggy S. Adams - If You Wanna Hear Me Holar
TTITLE7=Stephanie McDee - She Don't Want Nothin'
TTITLE8=Omar Cunningham - Hell At The House
TTITLE9=Marvin Sease - I'm Going Out
TTITLE10=Jacquel - Girls Night Out
TTITLE11=Quinn Golden - Bottoms Up
TTITLE12=Charles Wilson - Smack It Up
TTITLE13=Jody Sticker - Don't Make No Noise
TTITLE14=Willie Clayton - I Love Some Some You (Remix)
TTITLE15=De'mond Crump - Neighborhood Ratz
TTITLE16=Steve Perry - Nosey Neighbors
EXTD=
EXTT0=
EXTT1=
EXTT2=
EXTT3=
EXTT4=
EXTT5=
EXTT6=
EXTT7=
EXTT8=
EXTT9=
EXTT10=
EXTT11=
EXTT12=
EXTT13=
EXTT14=
EXTT15=
EXTT16=
PLAYORDER=
